<svg width="50" height="50" viewBox="0 0 50 50" fill="none" xmlns="http://www.w3.org/2000/svg">
<path d="M37.1134 14.9141C37.0722 14.4572 36.698 14.1082 36.2512 14.1101H13.615C13.1599 14.1089 12.7809 14.4685 12.746 14.9345L11.0017 40.0714C10.9866 40.3226 11.0728 40.569 11.2403 40.7528C11.4121 40.9395 11.6537 41.0414 11.9036 41.032H37.9886C38.2314 41.0351 38.4644 40.9322 38.6299 40.7494C38.7954 40.5663 38.878 40.3202 38.8573 40.0714L37.1134 14.9141ZM12.8127 39.2403L14.4243 15.8688H35.4354L37.0538 39.2403H12.8127Z" fill="#2061A1"/>
<path d="M20.1279 15.868H21.8722V18.0826H21.8725C21.8328 18.5474 21.4541 18.904 21.0002 18.904C20.5463 18.904 20.1676 18.5474 20.1279 18.0826L20.1279 15.868Z" fill="#2061A1"/>
<path d="M29.7313 13.9126V14.1103H27.9936V13.9333C27.9441 12.8446 27.3502 11.8596 26.4234 11.3291C25.4966 10.7989 24.3689 10.7989 23.4418 11.3291C22.5151 11.8596 21.9212 12.8446 21.872 13.9333V14.1103H20.1274V13.9333C20.1274 12.1708 21.0426 10.5421 22.5284 9.66092C24.0142 8.77969 25.8446 8.77969 27.3303 9.66092C28.8161 10.5421 29.7313 12.1708 29.7313 13.9333" fill="#2061A1"/>
<path d="M27.9941 15.868H29.7319V18.0826C29.7319 18.5757 29.3428 18.9754 28.8629 18.9754C28.3832 18.9754 27.9941 18.5757 27.9941 18.0826V15.868Z" fill="#2061A1"/>
<path d="M31.5619 36.7054H17.9653C17.7225 36.7273 17.4821 36.6437 17.3027 36.4746C17.123 36.3054 17.0205 36.0666 17.0205 35.8163C17.0205 35.5659 17.123 35.3272 17.3027 35.1583C17.4821 34.9892 17.7225 34.9052 17.9653 34.9271H31.5619C31.8047 34.9052 32.0451 34.9892 32.2245 35.1583C32.4043 35.3272 32.5067 35.5659 32.5067 35.8163C32.5067 36.0666 32.4043 36.3054 32.2245 36.4746C32.0451 36.6437 31.8047 36.7274 31.5619 36.7054Z" fill="#2061A1"/>
</svg>
