<svg width="50" height="50" viewBox="0 0 50 50" fill="none" xmlns="http://www.w3.org/2000/svg">
<path d="M25.9264 34.5947L30.6561 39.1165L32.1633 37.6612L27.4337 33.1394L25.9264 34.5947Z" fill="#2061A1"/>
<path d="M37.4131 14.4802C36.4255 12.2453 34.2946 10.6341 31.7998 10.1663C29.305 9.69856 26.7583 10.4782 24.9392 12.1933L24.5234 12.5572L24.1076 12.1414C22.2885 10.4262 19.7417 9.69856 17.2469 10.1144C14.7521 10.5821 12.6212 12.1933 11.6337 14.4282C10.3863 17.2349 11.01 20.405 13.2449 22.5363L21.5608 30.4887L23.1201 29.0334L14.8041 21.081C13.1929 19.5218 12.7251 17.2349 13.6607 15.2598C14.3883 13.5967 15.8436 12.5052 17.7147 12.1414C19.5338 11.8295 21.3009 12.3493 22.6003 13.5967L24.5753 15.4677L26.5504 13.5967C27.8497 12.3493 29.6169 11.8295 31.436 12.1414C33.2551 12.4532 34.7104 13.5967 35.49 15.2598C36.3736 17.2349 35.9058 19.5218 34.3466 21.081L16.8831 37.6606L18.4423 39.1159L35.8535 22.5363C38.0365 20.4053 38.6602 17.2349 37.4128 14.4805L37.4131 14.4802Z" fill="#2061A1"/>
</svg>
