<svg width="44" height="43" viewBox="0 0 44 43" fill="none" xmlns="http://www.w3.org/2000/svg">
<path d="M32.6744 14.9786C31.895 15.3063 31.1156 15.5685 30.2063 15.634C31.1156 15.1097 31.7651 14.2576 32.0898 13.2745C31.2455 13.7988 30.3362 14.1265 29.362 14.3232C28.5826 13.4711 27.4784 12.9468 26.2444 12.9468C23.9062 12.9468 21.9578 14.8475 21.9578 17.2726C21.9578 17.6003 22.0227 17.928 22.0877 18.2557C18.5154 18.0591 15.3979 16.355 13.3195 13.7333C12.9298 14.3887 12.735 15.1097 12.735 15.8962C12.735 17.4037 13.5144 18.7145 14.6185 19.501C13.9041 19.501 13.2546 19.3044 12.67 18.9767V19.0422C12.67 21.1396 14.1639 22.8437 16.1123 23.237C15.7226 23.3025 15.3979 23.3681 15.0082 23.3681C14.7484 23.3681 14.4886 23.3681 14.2288 23.3025C14.7484 25.0066 16.3721 26.2519 18.1907 26.3175C16.7618 27.4972 14.8783 28.1527 12.8649 28.1527C12.5401 28.1527 12.1504 28.1527 11.8257 28.0871C13.7092 29.3324 15.9824 30.0534 18.3856 30.0534C26.2444 30.0534 30.5311 23.4991 30.5311 17.7969C30.5311 17.6003 30.5311 17.4037 30.5311 17.2726C31.3754 16.5516 32.1548 15.8307 32.6744 14.9786Z" fill="white"/>
</svg>
