<svg width="44" height="43" viewBox="0 0 44 43" fill="none" xmlns="http://www.w3.org/2000/svg">
<path fill-rule="evenodd" clip-rule="evenodd" d="M31.0713 15.8311C30.5044 14.8232 29.9375 14.6343 28.7407 14.5713C27.5439 14.5083 24.5205 14.4453 21.875 14.4453C19.2295 14.4453 16.2061 14.5083 15.0093 14.5713C13.8125 14.6343 13.1826 14.8232 12.6787 15.8311C12.1118 16.8389 11.7969 18.5396 11.7969 21.5C11.7969 24.4604 12.1118 26.1611 12.6787 27.1689C13.2456 28.1768 13.8125 28.3657 15.0093 28.4287C16.2061 28.4917 19.2295 28.5547 21.875 28.5547C24.5205 28.5547 27.5439 28.4917 28.7407 28.4287C29.9375 28.3657 30.5674 28.1768 31.0713 27.1689C31.6382 26.1611 31.9532 24.4604 31.9532 21.5C31.8902 18.5396 31.6382 16.8389 31.0713 15.8311ZM19.8594 25.2163V17.8467L25.5913 21.563L19.8594 25.2163Z" fill="white"/>
</svg>
