<svg width="43" height="43" viewBox="0 0 43 43" fill="none" xmlns="http://www.w3.org/2000/svg">
<path d="M31.5175 17.3448C31.4685 16.2721 31.2982 15.5395 31.049 14.8984C30.7914 14.2357 30.4469 13.6737 29.8866 13.1134C29.3263 12.5531 28.7643 12.2085 28.1015 11.951C27.4605 11.7018 26.7279 11.5315 25.6552 11.4825C24.5802 11.4335 24.2371 11.4219 21.5 11.4219C18.7629 11.4219 18.4197 11.4335 17.3448 11.4825C16.2721 11.5315 15.5395 11.7018 14.8984 11.951C14.2357 12.2085 13.6737 12.5531 13.1134 13.1134C12.5531 13.6737 12.2085 14.2357 11.951 14.8984C11.7018 15.5395 11.5315 16.2721 11.4825 17.3448C11.4335 18.4197 11.4219 18.7629 11.4219 21.5C11.4219 24.2371 11.4335 24.5802 11.4825 25.6552C11.5315 26.7279 11.7018 27.4605 11.951 28.1015C12.2085 28.7642 12.5531 29.3263 13.1134 29.8866C13.6737 30.4469 14.2357 30.7914 14.8984 31.049C15.5395 31.2982 16.2721 31.4685 17.3448 31.5175C18.4198 31.5665 18.763 31.5781 21.5 31.5781C24.237 31.5781 24.5802 31.5665 25.6552 31.5175C26.7279 31.4685 27.4605 31.2982 28.1015 31.049C28.7643 30.7914 29.3263 30.4469 29.8866 29.8866C30.4469 29.3263 30.7914 28.7643 31.049 28.1015C31.2982 27.4605 31.4685 26.7279 31.5175 25.6552C31.5665 24.5802 31.5781 24.237 31.5781 21.5C31.5781 18.763 31.5665 18.4197 31.5175 17.3448ZM29.7035 25.5724C29.6587 26.555 29.4945 27.0886 29.3565 27.4438C29.1737 27.9142 28.9553 28.2499 28.6026 28.6026C28.2499 28.9553 27.9142 29.1737 27.4438 29.3565C27.0886 29.4945 26.555 29.6587 25.5724 29.7035C24.5099 29.752 24.1912 29.7622 21.5 29.7622C18.8088 29.7622 18.4901 29.752 17.4276 29.7035C16.445 29.6587 15.9113 29.4945 15.5562 29.3565C15.0858 29.1737 14.7501 28.9553 14.3974 28.6026C14.0448 28.2499 13.8263 27.9142 13.6435 27.4438C13.5055 27.0886 13.3413 26.555 13.2965 25.5724C13.248 24.5097 13.2377 24.191 13.2377 21.5C13.2377 18.809 13.248 18.4903 13.2965 17.4276C13.3413 16.445 13.5055 15.9113 13.6435 15.5562C13.8263 15.0858 14.0447 14.7501 14.3974 14.3974C14.7501 14.0448 15.0858 13.8263 15.5562 13.6435C15.9113 13.5055 16.445 13.3413 17.4276 13.2965C18.4903 13.248 18.809 13.2377 21.5 13.2377C24.191 13.2377 24.5097 13.248 25.5724 13.2965C26.555 13.3413 27.0886 13.5055 27.4438 13.6435C27.9142 13.8263 28.2499 14.0447 28.6026 14.3974C28.9553 14.7501 29.1737 15.0858 29.3565 15.5562C29.4945 15.9113 29.6587 16.445 29.7035 17.4276C29.7519 18.4903 29.7622 18.809 29.7622 21.5C29.7622 24.191 29.7519 24.5097 29.7035 25.5724Z" fill="white"/>
<path d="M21.5006 16.3252C18.6423 16.3252 16.3253 18.6422 16.3253 21.5005C16.3253 24.3587 18.6424 26.6757 21.5006 26.6757C24.3588 26.6757 26.6758 24.3587 26.6758 21.5005C26.6758 18.6422 24.3588 16.3252 21.5006 16.3252ZM21.5006 24.8598C19.6452 24.8598 18.1412 23.3558 18.1412 21.5005C18.1412 19.6451 19.6452 18.1411 21.5006 18.1411C23.3559 18.1411 24.86 19.6451 24.86 21.5005C24.86 23.3558 23.3559 24.8598 21.5006 24.8598Z" fill="white"/>
<path d="M26.8809 17.3306C27.5488 17.3306 28.0902 16.7891 28.0902 16.1212C28.0902 15.4533 27.5488 14.9119 26.8809 14.9119C26.213 14.9119 25.6715 15.4533 25.6715 16.1212C25.6715 16.7891 26.213 17.3306 26.8809 17.3306Z" fill="white"/>
</svg>
