<svg width="50" height="50" viewBox="0 0 50 50" fill="none" xmlns="http://www.w3.org/2000/svg">
<path d="M25.6452 7.66519C24.8303 7.66519 24.049 7.98876 23.4728 8.56495C22.8969 9.1411 22.5731 9.92246 22.5731 10.7373L22.5731 10.8257C21.6744 10.3451 20.5896 10.3717 19.7156 10.8956C18.8413 11.4195 18.3066 12.364 18.3069 13.3829L18.3069 25.141C18.2962 25.2896 18.2008 25.4185 18.0618 25.4721C17.9228 25.5256 17.7653 25.4937 17.6579 25.3906L16.5404 24.1542C15.3599 22.8481 13.647 22.1535 11.8905 22.2687C11.2104 22.3087 10.5971 22.6906 10.2611 23.2834C9.92524 23.8759 9.91265 24.5985 10.2277 25.2026L15.8379 36.0199C16.6029 37.4526 17.6684 38.7033 18.9614 39.686C20.2546 40.6688 21.7444 41.3609 23.3298 41.7145C26.3166 42.4291 29.4665 41.7868 31.9352 39.9598C34.9765 37.6557 37.0885 33.8465 37.1922 30.4827C37.2305 29.2232 37.242 27.6409 37.242 25.986C37.242 22.2382 37.1729 18.0987 37.1421 16.386L37.1423 16.3857C37.1284 15.67 36.8348 14.9881 36.3246 14.4858C35.8146 13.9833 35.1281 13.7007 34.4121 13.6978C34.0004 13.6943 33.5932 13.7851 33.2217 13.9627L33.2217 13.502C33.2225 12.4305 32.6541 11.4397 31.7289 10.8998C30.8038 10.3595 29.6614 10.3517 28.7289 10.8791L28.7289 10.7447L28.7289 10.7449C28.7311 9.92663 28.4067 9.14154 27.8279 8.5635C27.249 7.98547 26.4634 7.66218 25.6454 7.6651L25.6452 7.66519ZM27.181 21.6774C27.181 22.1016 27.525 22.4453 27.9493 22.4453C28.3733 22.4453 28.7172 22.1017 28.7172 21.6774L28.7172 13.502C28.7172 12.9738 28.999 12.4857 29.4565 12.2216C29.9137 11.9575 30.4773 11.9575 30.9348 12.2216C31.3923 12.4857 31.6741 12.9738 31.6741 13.502L31.6741 23.8086C31.6741 24.2326 32.0177 24.5765 32.442 24.5765C32.866 24.5765 33.21 24.2326 33.21 23.8086L33.21 16.4123C33.229 16.002 33.4575 15.6302 33.8151 15.4282C34.1727 15.226 34.6093 15.2217 34.9706 15.417C35.332 15.6122 35.5677 15.9795 35.5947 16.3893C35.6371 18.8506 35.7638 26.3387 35.6446 30.4168C35.5562 33.3391 33.69 36.676 30.9982 38.7151L30.9982 38.7153C28.8925 40.2657 26.2101 40.8081 23.6676 40.1976C20.9033 39.5867 18.5424 37.8019 17.201 35.3093L11.5908 24.492C11.5182 24.3514 11.5212 24.1837 11.5983 24.0455C11.6757 23.907 11.8169 23.8168 11.9749 23.8047C13.2695 23.7206 14.5311 24.236 15.3962 25.2027L16.5138 26.4391C16.866 26.8224 17.3591 27.0463 17.8796 27.0595C18.4003 27.0726 18.9036 26.8736 19.2748 26.5082C19.634 26.1517 19.8357 25.6664 19.8355 25.1604L19.8355 13.3908C19.8355 12.903 20.0956 12.4525 20.518 12.2085C20.9404 11.9647 21.4608 11.9647 21.883 12.2085C22.3054 12.4525 22.5657 12.903 22.5657 13.3908L22.5657 22.4186C22.5657 22.8429 22.9094 23.1866 23.3337 23.1866C23.7577 23.1866 24.1016 22.8429 24.1016 22.4186L24.1016 10.745C24.1016 10.1962 24.3944 9.68915 24.8696 9.41459C25.3448 9.1403 25.9303 9.1403 26.4057 9.41459C26.8809 9.68914 27.1737 10.1962 27.1737 10.745L27.181 21.6774Z" fill="#2061A1" stroke="#2061A1" stroke-width="0.056" stroke-miterlimit="10"/>
</svg>
