<svg width="181" height="44" viewBox="0 0 181 44" fill="none" xmlns="http://www.w3.org/2000/svg">
<path d="M30.6206 24.1632H30.6429H30.6907H30.7124L30.7311 24.1741L44.8246 32.3657L44.8265 32.3668L44.8265 32.3668C44.855 32.3844 44.8755 32.4123 44.884 32.4446C44.8925 32.4768 44.8883 32.5111 44.8723 32.5405M30.6206 24.1632L44.8018 32.5019M30.6206 24.1632L30.6015 24.1747M30.6206 24.1632L30.6015 24.1747M44.8723 32.5405L44.8018 32.5019M44.8723 32.5405C44.8724 32.5404 44.8724 32.5404 44.8724 32.5403L44.8018 32.5019M44.8723 32.5405C44.8641 32.5555 44.853 32.5688 44.8395 32.5794L44.8395 32.5794C44.826 32.5901 44.8105 32.5979 44.7938 32.6024L44.7728 32.5248C44.7789 32.5231 44.7846 32.5203 44.7896 32.5163C44.7946 32.5124 44.7987 32.5075 44.8018 32.5019M30.6015 24.1747L17.2747 32.172L17.2747 32.172M30.6015 24.1747L17.2747 32.172M17.2747 32.172L17.2739 32.1725M17.2747 32.172L17.2739 32.1725M17.2739 32.1725C17.245 32.1903 17.2243 32.2187 17.2161 32.2515C17.208 32.2843 17.2129 32.319 17.23 32.3483L17.2304 32.3488M17.2739 32.1725L17.2304 32.3488M17.2304 32.3488C17.2477 32.3779 17.2759 32.3991 17.3088 32.4075C17.3418 32.4159 17.3767 32.4108 17.4059 32.3934L17.4062 32.3933M17.2304 32.3488L17.4062 32.3933M17.4062 32.3933L30.6679 24.4361L44.6945 32.5882M17.4062 32.3933L44.6954 32.5888M44.6954 32.5888L44.696 32.5891L44.7364 32.5196L44.6945 32.5882M44.6954 32.5888C44.6951 32.5886 44.6948 32.5884 44.6945 32.5882M44.6954 32.5888L44.6945 32.5882" fill="white" stroke="white" stroke-width="0.160837"/>
<mask id="path-2-outside-1_321_794" maskUnits="userSpaceOnUse" x="1.14465" y="9.88013" width="59" height="13" fill="black">
<rect fill="white" x="1.14465" y="9.88013" width="59" height="13"/>
<path d="M30.5528 10.8801L2.1746 22.5828C2.16274 22.5877 2.15332 22.5972 2.14838 22.6092C2.14345 22.6211 2.14341 22.6345 2.14826 22.6465C2.15062 22.6524 2.15411 22.6577 2.15852 22.6623C2.16294 22.6668 2.1682 22.6704 2.174 22.6728C2.1798 22.6753 2.18603 22.6766 2.19233 22.6766C2.19862 22.6766 2.20486 22.6754 2.21069 22.673L30.5713 10.9782L58.931 22.2884C58.9428 22.2921 58.9555 22.291 58.9666 22.2856C58.9776 22.2802 58.9862 22.2708 58.9907 22.2592C58.9951 22.2477 58.9951 22.2349 58.9905 22.2234C58.986 22.2119 58.9773 22.2025 58.9661 22.1972L30.5879 10.8801H30.5528Z"/>
</mask>
<path d="M30.5528 10.8801L2.1746 22.5828C2.16274 22.5877 2.15332 22.5972 2.14838 22.6092C2.14345 22.6211 2.14341 22.6345 2.14826 22.6465C2.15062 22.6524 2.15411 22.6577 2.15852 22.6623C2.16294 22.6668 2.1682 22.6704 2.174 22.6728C2.1798 22.6753 2.18603 22.6766 2.19233 22.6766C2.19862 22.6766 2.20486 22.6754 2.21069 22.673L30.5713 10.9782L58.931 22.2884C58.9428 22.2921 58.9555 22.291 58.9666 22.2856C58.9776 22.2802 58.9862 22.2708 58.9907 22.2592C58.9951 22.2477 58.9951 22.2349 58.9905 22.2234C58.986 22.2119 58.9773 22.2025 58.9661 22.1972L30.5879 10.8801H30.5528Z" fill="white"/>
<path d="M30.5528 10.8801V10.7193H30.5209L30.4915 10.7314L30.5528 10.8801ZM2.1746 22.5828L2.11328 22.4341L2.11221 22.4345L2.1746 22.5828ZM2.14826 22.6465L2.29752 22.5866L2.29732 22.5861L2.14826 22.6465ZM2.21069 22.673L2.27192 22.8217L2.272 22.8217L2.21069 22.673ZM30.5713 10.9782L30.6309 10.8288L30.5703 10.8047L30.51 10.8295L30.5713 10.9782ZM58.931 22.2884L58.8712 22.4384L58.884 22.4423L58.931 22.2884ZM58.9661 22.1972L59.0356 22.0518L59.0257 22.0478L58.9661 22.1972ZM30.5879 10.8801L30.6475 10.7307L30.6188 10.7193H30.5879V10.8801ZM30.4915 10.7314L2.11328 22.4341L2.23591 22.7314L30.6141 11.0288L30.4915 10.7314ZM2.11221 22.4345C2.06109 22.456 2.02077 22.4968 1.99973 22.5478L2.29704 22.6706C2.28586 22.6977 2.26438 22.7195 2.23699 22.731L2.11221 22.4345ZM1.99973 22.5478C1.97869 22.5987 1.97851 22.6559 1.9992 22.7069L2.29732 22.5861C2.30831 22.6132 2.30821 22.6435 2.29704 22.6706L1.99973 22.5478ZM1.99901 22.7064C2.00922 22.7319 2.02435 22.7551 2.0436 22.7748L2.27345 22.5497C2.28386 22.5604 2.29202 22.5729 2.29752 22.5866L1.99901 22.7064ZM2.0436 22.7748C2.06284 22.7944 2.0858 22.8101 2.11118 22.8209L2.23682 22.5248C2.2506 22.5306 2.26304 22.5391 2.27345 22.5497L2.0436 22.7748ZM2.11118 22.8209C2.13656 22.8316 2.16385 22.8373 2.19146 22.8374L2.19319 22.5158C2.20821 22.5158 2.22304 22.5189 2.23682 22.5248L2.11118 22.8209ZM2.19146 22.8374C2.21909 22.8376 2.24643 22.8322 2.27192 22.8217L2.14945 22.5243C2.16329 22.5186 2.17815 22.5157 2.19319 22.5158L2.19146 22.8374ZM2.272 22.8217L30.6327 11.1269L30.51 10.8295L2.14937 22.5243L2.272 22.8217ZM30.5118 11.1276L58.8714 22.4378L58.9906 22.1391L30.6309 10.8288L30.5118 11.1276ZM58.884 22.4423C58.9348 22.4578 58.9896 22.4534 59.0373 22.4301L58.8958 22.1412C58.9214 22.1287 58.9508 22.1263 58.978 22.1346L58.884 22.4423ZM59.0373 22.4301C59.085 22.4067 59.1218 22.3662 59.1408 22.317L58.8406 22.2015C58.8507 22.1753 58.8703 22.1537 58.8958 22.1412L59.0373 22.4301ZM59.1408 22.317C59.1597 22.2678 59.1595 22.2132 59.1401 22.1642L58.841 22.2826C58.8307 22.2565 58.8305 22.2276 58.8406 22.2015L59.1408 22.317ZM59.1401 22.1642C59.1206 22.1151 59.0834 22.075 59.0355 22.0521L58.8968 22.3423C58.8711 22.3301 58.8513 22.3086 58.841 22.2826L59.1401 22.1642ZM59.0257 22.0478L30.6475 10.7307L30.5283 11.0295L58.9066 22.3466L59.0257 22.0478ZM30.5879 10.7193H30.5528V11.041H30.5879V10.7193Z" fill="white" mask="url(#path-2-outside-1_321_794)"/>
<path d="M30.6443 17.4333H30.6248L30.6074 17.4422L7.97816 29.1439L7.97815 29.1439L7.97707 29.1445C7.94745 29.1604 7.9252 29.1871 7.91481 29.2189L7.99122 29.2438L7.9148 29.2189C7.90442 29.2507 7.90663 29.2853 7.92101 29.3156L7.92101 29.3156L7.92149 29.3166C7.92896 29.3317 7.93936 29.3453 7.9521 29.3565C7.96484 29.3676 7.97968 29.3762 7.99579 29.3816C8.0119 29.387 8.02892 29.3891 8.04584 29.3879L8.04585 29.3879C8.06279 29.3866 8.0793 29.382 8.09442 29.3743L8.09495 29.3741L30.6671 17.7022L53.4263 29.2772L53.4278 29.2779C53.4581 29.2926 53.4929 29.2948 53.5249 29.2841C53.5568 29.2734 53.5832 29.2507 53.5986 29.2209L53.5991 29.2198C53.6143 29.1893 53.6169 29.1541 53.6063 29.1216C53.5958 29.0892 53.5728 29.0622 53.5423 29.0466L53.5421 29.0465L30.7217 17.442L30.7046 17.4333H30.6853H30.6443Z" fill="white" stroke="white" stroke-width="0.160837"/>
<path d="M38.6409 7.09672L38.641 7.09582C38.6481 7.04976 38.6728 7.00818 38.71 6.98008C38.7473 6.95196 38.7941 6.93962 38.8404 6.9458L38.8427 6.9461L38.8427 6.94614C38.8889 6.95366 38.9302 6.97911 38.9578 7.01685L38.9578 7.01685C38.9853 7.05458 38.997 7.10159 38.9904 7.14779L38.9902 7.14908L38.9902 7.14908C38.9893 7.15425 38.9866 7.17279 38.9819 7.20415C38.8966 7.77735 38.1737 12.6348 36.9424 18.5256C35.6446 24.7341 33.7802 32.1001 31.4985 36.8088C31.491 36.831 31.4792 36.8516 31.4637 36.8692L31.4637 36.8692C31.4465 36.8889 31.4252 36.9045 31.4013 36.915L31.4013 36.915C31.3774 36.9255 31.3515 36.9306 31.3253 36.93C31.2992 36.9293 31.2736 36.9228 31.2502 36.9111C31.2269 36.8994 31.2064 36.8826 31.1903 36.8621C31.1903 36.8621 31.1903 36.8621 31.1903 36.8621L31.2535 36.8124C31.2446 36.8011 31.2383 36.788 31.235 36.774C31.2317 36.7601 31.2316 36.7455 31.2345 36.7314C31.2374 36.7174 31.2434 36.7041 31.2519 36.6926L38.6409 7.09672ZM38.6409 7.09672C38.6269 7.19614 37.8957 12.2483 36.6003 18.446C35.305 24.6434 33.4475 31.9769 31.1824 36.6517L38.6409 7.09672ZM38.9108 7.13637C38.9099 7.1416 38.9071 7.16029 38.9024 7.19188C38.7265 8.3739 35.8611 27.6264 31.4236 36.779C31.4196 36.7928 31.4126 36.8055 31.4032 36.8163C31.3938 36.8271 31.3821 36.8357 31.369 36.8414L38.9108 7.13637ZM38.9108 7.13637C38.9144 7.1109 38.908 7.08501 38.8928 7.06428M38.9108 7.13637L38.8928 7.06428M38.8928 7.06428C38.8777 7.04354 38.8551 7.02962 38.8298 7.02551L38.8928 7.06428Z" fill="white" stroke="white" stroke-width="0.160837"/>
<path d="M45.3553 8.54282L45.3555 8.5422C45.3668 8.49718 45.3952 8.45825 45.4348 8.43383C45.4744 8.4094 45.522 8.40147 45.5674 8.41179L45.5698 8.41234L45.5698 8.41238C45.6153 8.42422 45.6543 8.45365 45.6782 8.49407C45.7021 8.53444 45.7091 8.58259 45.6979 8.62808M45.3553 8.54282L45.6198 8.60891M45.3553 8.54282C45.3284 8.65356 43.9414 14.2768 41.5126 20.471C40.2982 23.5682 38.8242 26.806 37.1306 29.5681C35.436 32.332 33.5267 34.6108 31.4454 35.8008L31.4454 35.8008L31.4446 35.8012C31.4043 35.8248 31.375 35.8633 31.3628 35.9082L31.4404 35.9294M45.3553 8.54282L31.4853 35.8706M45.6979 8.62808C45.6979 8.62814 45.6978 8.6282 45.6978 8.62825L45.6198 8.60891M45.6979 8.62808C45.6979 8.62803 45.6979 8.62797 45.6979 8.62791L45.6198 8.60891M45.6979 8.62808C45.6689 8.74736 44.2754 14.3966 41.8301 20.6231C40.6069 23.7378 39.1196 26.9992 37.4071 29.7858C35.6956 32.5706 33.754 34.8899 31.6188 36.1101L31.6166 36.1114L31.6166 36.1113C31.576 36.1329 31.5286 36.1378 31.4844 36.1251L31.4844 36.1251C31.4402 36.1124 31.4027 36.0831 31.3797 36.0434L31.3788 36.042L31.3788 36.0419C31.3563 36.0012 31.3505 35.9532 31.3628 35.9082L31.4404 35.9294M45.6198 8.60891C45.5652 8.83357 40.0493 31.1999 31.5789 36.0403C31.5567 36.0521 31.5308 36.0548 31.5066 36.0479C31.4824 36.0409 31.4619 36.0248 31.4492 36.003C31.4368 35.9806 31.4336 35.9541 31.4404 35.9294M31.4404 35.9294C31.4471 35.9046 31.4632 35.8835 31.4853 35.8706M31.4853 35.8706C39.8815 31.0704 45.3789 8.78648 45.4335 8.56182L31.4853 35.8706Z" fill="white" stroke="white" stroke-width="0.160837"/>
<path d="M50.4356 9.80892L50.4357 9.80895C50.447 9.76505 50.4746 9.72703 50.513 9.70274C50.5514 9.67844 50.5976 9.66976 50.6423 9.67854L50.6446 9.679L50.6446 9.67903C50.6899 9.68936 50.7293 9.71705 50.7545 9.75605C50.7797 9.79499 50.7887 9.84219 50.7798 9.88764C50.7798 9.88769 50.7798 9.88774 50.7797 9.8878L50.7009 9.87222C50.6901 9.92716 49.5626 15.2757 46.6783 21.1432L50.4356 9.80892ZM50.4356 9.80892L50.4347 9.81337M50.4356 9.80892L50.4347 9.81337M50.4347 9.81337L50.4347 9.81349M50.4347 9.81337L50.4347 9.81349M50.4347 9.81349L50.4346 9.81383M50.4347 9.81349L50.4346 9.81383M50.4346 9.81383L50.4344 9.81499M50.4346 9.81383L50.4344 9.81499M50.4344 9.81499L50.4336 9.81892M50.4344 9.81499L50.4336 9.81892M50.4336 9.81892L50.4306 9.83264M50.4336 9.81892L50.4306 9.83264M50.4306 9.83264L50.4198 9.8826M50.4306 9.83264L50.4198 9.8826M50.4198 9.8826C50.4104 9.92575 50.3964 9.98835 50.3778 10.0692M50.4198 9.8826L50.3778 10.0692M50.3778 10.0692C50.3405 10.231 50.2847 10.4658 50.2089 10.7645M50.3778 10.0692L50.2089 10.7645M50.2089 10.7645C50.0575 11.3618 49.8266 12.2143 49.5062 13.2477M50.2089 10.7645L49.5062 13.2477M49.5062 13.2477C48.8655 15.3146 47.8674 18.1042 46.4325 21.0224L49.5062 13.2477Z" fill="white" stroke="white" stroke-width="0.160837"/>
<path d="M32.9123 35.5266L32.9124 35.5266C39.9202 33.1019 44.273 29.7504 47.056 26.5507C49.8391 23.351 51.0555 20.2996 51.7865 18.4662L51.7867 18.4657C53.1977 14.9247 54.0645 11.144 54.079 11.0811L54.0791 11.0806L54.0791 11.0806L54.1575 11.0986C54.1603 11.086 54.1656 11.0741 54.1731 11.0636C54.1805 11.0531 54.19 11.0442 54.2008 11.0374C54.2117 11.0305 54.2238 11.0259 54.2364 11.0238C54.2491 11.0217 54.262 11.0221 54.2745 11.025L32.9123 35.5266ZM32.9123 35.5266C32.8677 35.5421 32.8311 35.5747 32.8105 35.6172M32.9123 35.5266L32.8105 35.6172M32.8105 35.6172L32.8828 35.6523M32.8105 35.6172L32.8105 35.6172L32.8828 35.6523M32.8828 35.6523C32.8942 35.6289 32.9142 35.611 32.9387 35.6026L32.8828 35.6523Z" fill="white" stroke="white" stroke-width="0.160837"/>
<path d="M56.5702 12.356L56.57 12.3571C56.5611 12.4075 55.6935 17.3501 53.9005 20.988L53.9005 20.9881C53.2338 22.345 51.8882 25.083 48.7987 27.905C45.7093 30.7269 40.8719 33.6364 33.2174 35.3269L33.2173 35.3263L33.2078 35.3296C33.1671 35.3441 33.133 35.373 33.112 35.4107C33.0909 35.4484 33.0842 35.4925 33.0931 35.5347C33.102 35.577 33.1258 35.6147 33.1604 35.6407H33.1604C33.195 35.6667 33.2378 35.6793 33.281 35.6759L33.281 35.6767L33.2921 35.6742C41.0172 33.9684 45.9111 31.0261 49.0439 28.1629C52.1722 25.3037 53.5402 22.527 54.2175 21.1522L54.2204 21.1465L54.2205 21.1463C55.1237 19.3013 55.7947 17.1314 56.2411 15.4187C56.4644 14.5619 56.6318 13.8186 56.7441 13.2863C56.8002 13.0202 56.8426 12.8067 56.8713 12.6582C56.8856 12.584 56.8966 12.526 56.9041 12.4857L56.9128 12.439C56.914 12.4326 56.9148 12.4285 56.9153 12.4262C56.9157 12.4239 56.9158 12.4233 56.9157 12.4236L56.9159 12.4237L56.9167 12.4188C56.9245 12.3731 56.9143 12.3261 56.8881 12.2878L56.8881 12.2878C56.8619 12.2495 56.8218 12.2228 56.7762 12.2136L56.7762 12.2136L56.7731 12.2131C56.7273 12.2057 56.6805 12.2166 56.6426 12.2434L56.6426 12.2434C56.6047 12.2701 56.5788 12.3105 56.5702 12.356Z" fill="white" stroke="white" stroke-width="0.160837"/>
<path d="M55.5313 22.7417L55.5314 22.7414C56.2817 21.2629 56.9695 18.8568 57.4721 16.8055C57.9604 14.8122 58.2718 13.1626 58.2941 13.0442C58.2952 13.021 58.3009 12.9981 58.3109 12.977C58.322 12.9533 58.3382 12.9323 58.3584 12.9156C58.3786 12.8988 58.4022 12.8868 58.4277 12.8802C58.4531 12.8737 58.4796 12.8729 58.5054 12.8779C58.5312 12.8828 58.5555 12.8935 58.5767 12.9089M55.5313 22.7417L58.5625 13.0892M55.5313 22.7417C54.5831 24.6247 53.1629 26.6559 50.2621 28.6882C47.3593 30.722 42.9712 32.7586 36.0847 34.6462L36.0844 34.6463C36.0391 34.6589 36.0008 34.6889 35.9775 34.7296C35.9543 34.7704 35.948 34.8186 35.9599 34.8639L35.9599 34.8639L35.9602 34.865C35.9726 34.9098 36.0021 34.948 36.0423 34.9715L36.0423 34.9715C36.0826 34.9949 36.1305 35.0016 36.1757 34.99L36.1769 34.9897C43.1099 33.0909 47.5426 31.0328 50.4848 28.9668C53.4288 26.8995 54.8777 24.8262 55.8456 22.9035M55.5313 22.7417L55.7739 22.8671M58.5767 12.9089L58.5292 12.9738L58.5767 12.9089C58.5767 12.9089 58.5767 12.9089 58.5767 12.9089ZM58.5767 12.9089C58.5978 12.9244 58.6153 12.9444 58.6278 12.9674L58.6279 12.9674C58.6404 12.9904 58.6478 13.0158 58.6494 13.042C58.6509 13.0651 58.6478 13.0883 58.6404 13.1103M58.6404 13.1103C58.6411 13.1066 58.6415 13.1043 58.6417 13.1033L58.5625 13.0892M58.6404 13.1103C58.6395 13.1131 58.6384 13.1159 58.6374 13.1187L58.5625 13.0892M58.6404 13.1103C58.6174 13.2344 58.3043 14.8923 57.8129 16.8966C57.3076 18.9574 56.6115 21.3938 55.8456 22.9035M58.5625 13.0892C58.5508 13.155 57.2964 19.8661 55.7739 22.8671M55.8456 22.9035C55.8456 22.9034 55.8456 22.9033 55.8457 22.9033L55.7739 22.8671M55.8456 22.9035L55.7739 22.8671M36.106 34.7238C49.8893 30.9458 53.6963 26.5646 55.6032 22.7778L36.106 34.7238ZM36.106 34.7238C36.0812 34.7306 36.0601 34.7471 36.0474 34.7695M36.106 34.7238L36.0474 34.7695M36.0474 34.7695C36.0346 34.7919 36.0311 34.8185 36.0377 34.8434L36.0474 34.7695Z" fill="white" stroke="white" stroke-width="0.160837"/>
<path d="M59.2518 13.8377C59.2517 13.8155 59.2557 13.7935 59.2636 13.7728C59.2636 13.7728 59.2636 13.7728 59.2636 13.7728L59.3387 13.8015L59.2518 13.8377ZM59.2518 13.8377C59.2397 13.9428 59.0911 15.207 58.7673 16.8343C58.432 18.5193 57.9099 20.5871 57.1599 22.1607L57.1595 22.1615C56.4933 23.559 55.3841 25.8854 52.5956 28.1982C49.8057 30.5121 45.329 32.8171 37.9211 34.1553C37.921 34.1553 37.921 34.1553 37.9209 34.1553L37.9352 34.2344M59.2518 13.8377L37.8053 34.2293M37.9352 34.2344C37.9094 34.239 37.8863 34.2537 37.8713 34.2753M37.9352 34.2344C52.7704 31.5546 55.8965 24.9976 57.2321 22.1962L57.2325 22.1953L37.9352 34.2344ZM37.8713 34.2753L37.8053 34.2293M37.8713 34.2753L37.8053 34.2293C37.8053 34.2293 37.8053 34.2293 37.8053 34.2293M37.8713 34.2753C37.8562 34.2969 37.8502 34.3237 37.8548 34.3497C37.8593 34.3757 37.8739 34.3989 37.8954 34.414M37.8053 34.2293C37.778 34.2683 37.7674 34.3166 37.7755 34.3635C37.7837 34.4104 37.8101 34.4522 37.849 34.4797H37.849M37.8954 34.414L37.849 34.4797C37.849 34.4797 37.849 34.4797 37.849 34.4797M37.8954 34.414L37.849 34.4797M37.8954 34.414C37.9169 34.4292 37.9435 34.4352 37.9694 34.4306C52.8986 31.7334 56.0558 25.1137 57.4043 22.2864L57.4051 22.2846C58.9287 19.0884 59.5169 13.9184 59.5227 13.8664M37.849 34.4797C37.888 34.5073 37.9363 34.5181 37.9833 34.5098L37.9837 34.5098C45.4603 33.159 49.9959 30.8244 52.8328 28.4677C55.6691 26.1114 56.8013 23.7375 57.4768 22.3211L57.4777 22.3192L57.4777 22.3192C58.2439 20.7118 58.7734 18.6123 59.1119 16.9122C59.4397 15.2661 59.5897 13.9884 59.6019 13.8821M59.6019 13.8821C59.6011 13.885 59.6003 13.8879 59.5994 13.8907L59.5227 13.8664M59.6019 13.8821C59.6078 13.8597 59.6093 13.8363 59.6062 13.8132C59.6028 13.7872 59.5937 13.7622 59.5795 13.7401L59.5795 13.7401C59.5653 13.718 59.5465 13.6993 59.5242 13.6853M59.6019 13.8821C59.6023 13.8786 59.6025 13.8763 59.6026 13.8754L59.5227 13.8664M59.5227 13.8664C59.5271 13.8527 59.5284 13.8381 59.5265 13.8237C59.5246 13.8094 59.5196 13.7957 59.5118 13.7835C59.504 13.7713 59.4936 13.7611 59.4814 13.7534M59.5242 13.6853L59.4814 13.7534M59.5242 13.6853C59.5242 13.6853 59.5242 13.6853 59.5242 13.6853L59.4814 13.7534M59.5242 13.6853L59.3988 13.7436C59.4125 13.739 59.4269 13.7375 59.4412 13.7392C59.4555 13.7409 59.4692 13.7457 59.4814 13.7534" fill="white" stroke="white" stroke-width="0.160837"/>
<path d="M59.8964 13.8695L59.8964 13.8695C59.9435 13.8671 59.9895 13.8835 60.0245 13.915C60.0593 13.9463 60.0804 13.99 60.0833 14.0367M59.8964 13.8695L60.003 14.0421M59.8964 13.8695L59.8936 13.8697C59.8468 13.8738 59.8037 13.8963 59.7734 13.9321C59.7432 13.9678 59.7282 14.0141 59.7317 14.0607L59.7317 14.0608C59.7352 14.1076 59.901 16.729 59.0337 19.9221C58.1666 23.1144 56.2691 26.8707 52.1519 29.2032M59.8964 13.8695L59.8119 14.0548C59.8197 14.1588 60.4761 24.5802 52.1911 29.2734M60.0833 14.0367C60.0833 14.0369 60.0833 14.0371 60.0833 14.0374L60.003 14.0421M60.0833 14.0367C60.0833 14.0365 60.0832 14.0362 60.0832 14.036L60.003 14.0421M60.0833 14.0367C60.0886 14.1112 60.2533 16.7759 59.3714 20.02C58.4864 23.2757 56.545 27.1225 52.3234 29.5141L52.3224 29.5146L52.3224 29.5146C49.892 30.8474 46.2002 32.1134 43.1089 33.0484C40.0157 33.9839 37.5164 34.5901 37.4668 34.602L37.4656 34.6023C37.4199 34.6126 37.3721 34.6044 37.3325 34.5796C37.2929 34.5548 37.2646 34.5155 37.2537 34.4701L37.2534 34.4689L37.2534 34.4689C37.2432 34.4236 37.251 34.3761 37.2752 34.3365C37.2994 34.2968 37.3381 34.2681 37.3832 34.2566L37.3838 34.2564C37.385 34.2562 37.3876 34.2555 37.3916 34.2545C37.5535 34.215 39.9974 33.6179 43.0031 32.7092C46.0846 31.7776 49.7493 30.5206 52.1519 29.2032M60.003 14.0421C60.0108 14.146 60.677 24.6891 52.2837 29.4441C47.4389 32.1007 37.5455 34.5003 37.4479 34.5239C37.423 34.5295 37.3969 34.525 37.3751 34.5114C37.3534 34.4979 37.3379 34.4763 37.3319 34.4513C37.3263 34.4263 37.3306 34.4001 37.3439 34.3783C37.3572 34.3565 37.3784 34.3408 37.4031 34.3345C37.4043 34.3342 37.4069 34.3336 37.4109 34.3326C37.7405 34.2521 47.428 31.8853 52.1911 29.2734M52.1519 29.2032C52.1518 29.2033 52.1516 29.2034 52.1514 29.2035L52.1911 29.2734M52.1519 29.2032C52.1521 29.2031 52.1522 29.203 52.1524 29.2029L52.1911 29.2734" fill="white" stroke="white" stroke-width="0.160837"/>
<path d="M29.7213 35.8847L29.7025 35.8065L29.7213 35.8847C29.7464 35.8786 29.7699 35.8672 29.7902 35.8511L29.7402 35.7881L29.7902 35.8511C29.8104 35.8351 29.8269 35.8148 29.8385 35.7918C29.8501 35.7688 29.8566 35.7435 29.8576 35.7177C29.8585 35.6945 29.8548 35.6713 29.8468 35.6495C29.3137 33.384 27.8639 30.5508 25.8271 27.8934C23.7883 25.2333 21.1561 22.7427 18.2545 21.1708L18.2162 21.2415L18.2545 21.1707C14.2441 18.9985 12.1516 16.239 12.1516 13.1971V10.6003C12.1516 10.5531 12.133 10.5077 12.0996 10.4742C12.0663 10.4407 12.021 10.4218 11.9736 10.4218C11.9263 10.4218 11.881 10.4407 11.8476 10.4742C11.8143 10.5077 11.7957 10.5531 11.7957 10.6003V13.201C11.7957 14.3155 12.0702 15.6845 12.9961 17.127C13.9217 18.569 15.4956 20.0804 18.0881 21.4848C20.9414 23.0306 23.5366 25.4826 25.5489 28.1064C27.5602 30.7288 28.984 33.5161 29.503 35.7315C29.5056 35.7547 29.5128 35.7772 29.5241 35.7977C29.5366 35.8203 29.5539 35.8399 29.5747 35.8552C29.5955 35.8705 29.6194 35.881 29.6447 35.8861C29.6701 35.8912 29.6962 35.8907 29.7213 35.8847Z" fill="white" stroke="white" stroke-width="0.160837"/>
<path d="M8.59707 11.7862H8.59902V14.3065C8.59902 14.3408 8.59932 15.885 9.24979 17.7323C9.90052 19.5803 11.2043 21.7374 13.8144 22.9836L13.8144 22.9836C16.4262 24.2299 19.8321 26.7135 22.8499 29.2735C25.8687 31.8342 28.4879 34.4616 29.5314 35.9912L29.5322 35.9924C29.559 36.0302 29.5995 36.0561 29.6452 36.0645C29.6908 36.0729 29.7379 36.063 29.7763 36.0371L29.7764 36.0371L29.778 36.036C29.8161 36.0089 29.842 35.968 29.8503 35.922C29.8586 35.876 29.8486 35.8286 29.8224 35.7899L29.8223 35.7897C28.7603 34.2325 26.1134 31.5799 23.0786 29.0053C20.0429 26.4299 16.6078 23.9231 13.9646 22.6619C11.4603 21.4668 10.2071 19.3957 9.57952 17.611C9.26576 16.7186 9.10893 15.8991 9.03065 15.2991C8.99152 14.9991 8.97204 14.7543 8.96238 14.5829C8.95755 14.4972 8.95517 14.4299 8.95402 14.3833C8.95344 14.36 8.95317 14.3418 8.95305 14.3292L8.95296 14.3144L8.95297 14.3103C8.95297 14.3093 8.95298 14.3089 8.95298 14.3088L8.95298 14.3088H8.95299V14.3074V11.7058C8.95299 11.6586 8.93435 11.6132 8.90103 11.5797C8.86769 11.5462 8.82238 11.5272 8.77503 11.5272C8.72768 11.5272 8.68237 11.5462 8.64903 11.5797C8.61571 11.6132 8.59707 11.6586 8.59707 11.7058V11.7862Z" fill="white" stroke="white" stroke-width="0.160837"/>
<path d="M10.8479 24.7244L10.848 24.7243C7.92452 22.6985 6.73786 19.6647 6.28256 17.135C5.83845 14.6674 6.08834 12.6702 6.10695 12.532C6.10694 12.5085 6.11154 12.4853 6.1205 12.4636C6.13056 12.4393 6.14587 12.4174 6.16537 12.3997C6.18487 12.382 6.20807 12.3688 6.23331 12.3611C6.25856 12.3534 6.28519 12.3515 6.31128 12.3554C6.33737 12.3593 6.36225 12.369 6.38412 12.3837C6.40599 12.3985 6.42429 12.4179 6.43775 12.4405C6.45121 12.4632 6.45949 12.4885 6.46203 12.5147C6.46425 12.5376 6.46201 12.5608 6.45547 12.5829C6.43782 12.718 6.19616 14.664 6.62704 17.0654C7.06963 19.5322 8.21984 22.4697 11.0409 24.4248C12.2823 25.1739 13.3595 25.7774 14.6083 26.4765L14.6084 26.4765L14.6264 26.4866C17.5379 28.1169 21.1671 30.1491 29.5135 35.4778L29.5138 35.478C29.5532 35.5033 29.5809 35.5432 29.5912 35.5889C29.6015 35.6345 29.5935 35.6824 29.5689 35.7222L29.5682 35.7233C29.5434 35.7621 29.5045 35.7899 29.4596 35.8006C29.4146 35.8113 29.3673 35.8041 29.3277 35.7805L29.3255 35.7792L29.3255 35.7791C20.9894 30.4562 17.3637 28.4264 14.4575 26.7994L14.4382 26.7885L10.8479 24.7244ZM10.8479 24.7244L10.8522 24.727M10.8479 24.7244L10.8522 24.727M10.8522 24.727C12.1049 25.4841 13.1867 26.09 14.4381 26.7885L10.8522 24.727ZM14.5876 26.557L14.5691 26.5466L29.5004 35.68C29.514 35.6581 29.5184 35.6317 29.5127 35.6065C29.5071 35.5814 29.4918 35.5595 29.4702 35.5456C21.1258 30.2181 17.4979 28.1867 14.5876 26.557Z" fill="white" stroke="white" stroke-width="0.160837"/>
<path d="M4.0544 13.4021H4.04931L4.05762 13.3141C4.05982 13.2908 4.06657 13.2681 4.07751 13.2473C4.08844 13.2266 4.10334 13.2082 4.12139 13.1932C4.15785 13.1629 4.20488 13.1483 4.25213 13.1528C4.27552 13.155 4.29822 13.1619 4.31894 13.1729C4.33966 13.184 4.35798 13.199 4.37287 13.2171C4.38777 13.2353 4.39894 13.2561 4.40579 13.2785L4.0544 13.4021ZM4.0544 13.4021C4.02226 13.8351 3.9092 15.8039 4.29918 18.1201C4.7363 20.7162 5.80848 23.7666 8.35466 25.5686C11.9809 28.1367 15.2537 29.4394 17.4161 30.3001L17.4192 30.3014L17.4192 30.3014C18.2874 30.6465 18.9656 30.9172 19.4294 31.1713C20.2608 31.6277 22.5327 32.7514 24.6778 33.777C25.7507 34.2901 26.7928 34.779 27.6082 35.1481C28.0159 35.3327 28.3673 35.4875 28.6379 35.6005C28.9048 35.7119 29.1012 35.7864 29.1933 35.8051L29.1942 35.8053C29.2412 35.8142 29.2897 35.8041 29.3291 35.7771C29.3685 35.7501 29.3955 35.7086 29.4044 35.6617C29.4132 35.6149 29.4032 35.5664 29.3765 35.5269C29.3498 35.4874 29.3084 35.46 29.2614 35.4511L29.2464 35.5301M4.0544 13.4021L19.468 31.1007C21.1262 32.0111 28.548 35.5919 29.2093 35.7263C29.2352 35.7312 29.2619 35.7256 29.2837 35.7107C29.3055 35.6958 29.3204 35.6728 29.3254 35.6468C29.3303 35.6208 29.3247 35.5939 29.3099 35.572C29.2951 35.5501 29.2722 35.535 29.2464 35.5301M29.2464 35.5301C28.6182 35.4025 21.1652 31.8022 19.5587 30.9242M29.2464 35.5301L29.2624 35.4512C29.2301 35.4447 29.1697 35.4253 29.08 35.3917C28.9918 35.3586 28.8799 35.3134 28.7468 35.2574C28.4808 35.1455 28.1326 34.9913 27.7268 34.8068C26.9154 34.438 25.8752 33.9488 24.8041 33.436C22.6612 32.4101 20.3983 31.2914 19.5973 30.8536M19.5587 30.9242L19.5974 30.8537C19.5974 30.8536 19.5973 30.8536 19.5973 30.8536M19.5587 30.9242C19.0897 30.6667 18.4167 30.3988 17.5718 30.0626L17.5182 30.0412M19.5587 30.9242L17.5182 30.0412M19.5973 30.8536C19.1238 30.5937 18.4469 30.3243 17.6061 29.9897L17.5479 29.9665L17.5182 30.0412M19.5973 30.8536L17.5182 30.0412M17.5182 30.0412L17.5479 29.9665C15.3961 29.1104 12.1497 27.8174 8.55685 25.2736L8.55684 25.2735M17.5182 30.0412L8.55684 25.2735M8.55684 25.2735C6.11251 23.5435 5.07145 20.5914 4.64495 18.0466M8.55684 25.2735L4.64495 18.0466M4.64495 18.0466C4.21914 15.5059 4.40898 13.3894 4.41283 13.3478L4.64495 18.0466Z" fill="white" stroke="white" stroke-width="0.160837"/>
<path d="M2.67387 13.8936C2.67058 13.902 2.66795 13.9107 2.66597 13.9195L2.66112 13.9227L2.65659 13.9591C2.65127 14.002 2.41998 16.064 2.69451 18.547C2.96861 21.0262 3.74923 23.947 5.78587 25.6847C8.80618 28.2695 12.2261 29.6305 15.5201 30.9414L15.5214 30.9419L15.5214 30.9419L15.5579 30.9565C16.6723 31.4005 17.7237 31.8195 18.7368 32.2786L18.7369 32.2786C22.7327 34.0841 28.8678 35.6533 28.9283 35.6688L28.9302 35.6692C28.9754 35.6796 29.0227 35.6719 29.0623 35.6478C29.1018 35.6238 29.1304 35.5853 29.1421 35.5406L29.1423 35.5397C29.1537 35.4944 29.1469 35.4464 29.1233 35.4061L29.0539 35.4466L29.1233 35.406C29.0998 35.3657 29.0613 35.3361 29.0161 35.3238L29.015 35.3236C28.9525 35.3076 22.8465 33.7464 18.8841 31.9535L18.8841 31.9535C17.8628 31.4919 16.8064 31.0708 15.6913 30.6262L15.6531 30.611L15.6531 30.611C12.3694 29.3047 8.98842 27.9581 6.01924 25.4134L6.0192 25.4134C4.07337 23.7485 3.31501 20.9241 3.04824 18.4886C2.78833 16.1158 2.99718 14.1332 3.01158 14.0045C3.0175 13.9821 3.01903 13.9588 3.01606 13.9358C3.01271 13.9098 3.00369 13.8848 2.98962 13.8627L2.92176 13.9059L2.98962 13.8627C2.97556 13.8406 2.95678 13.8218 2.93461 13.8078C2.91244 13.7937 2.88744 13.7847 2.86137 13.7815C2.83531 13.7783 2.80886 13.7809 2.78393 13.7891C2.759 13.7974 2.73622 13.811 2.7172 13.8291C2.69818 13.8472 2.6834 13.8692 2.67387 13.8936Z" fill="white" stroke="white" stroke-width="0.160837"/>
<path d="M28.0348 35.341C28.0594 35.3481 28.0802 35.3647 28.0928 35.387C28.1054 35.4094 28.1087 35.4359 28.1021 35.4607C28.0955 35.4854 28.0795 35.5065 28.0577 35.5195C28.0358 35.5325 28.0098 35.5364 27.9851 35.5304L28.0348 35.341ZM28.0348 35.341C27.9217 35.3106 16.6978 32.2489 8.61563 28.9095C0.598839 25.5965 2.13899 14.304 2.15557 14.1941C2.15923 14.1686 2.15279 14.1428 2.13765 14.122C2.1225 14.1013 2.09987 14.0874 2.07462 14.0832L28.0348 35.341ZM1.89038 14.1461L1.89027 14.1461L1.88967 14.1503C1.88084 14.212 1.48504 17.1121 2.114 20.4213C2.74288 23.7301 4.40037 27.4654 8.51275 29.1643L8.54345 29.09L8.51275 29.1643C16.4395 32.4388 27.3702 35.4447 27.9409 35.6016C27.9535 35.6051 27.961 35.6072 27.9634 35.6078L27.9634 35.6079L27.9661 35.6085C28.0112 35.6195 28.0589 35.6123 28.0988 35.5886C28.1387 35.5648 28.1677 35.5264 28.1798 35.4817L28.1798 35.4814C28.1918 35.4363 28.1858 35.3883 28.1629 35.3476C28.14 35.3069 28.1021 35.2768 28.0571 35.2638L28.0557 35.2634C27.9425 35.233 16.7232 32.1723 8.64634 28.8351C4.67423 27.1937 3.06481 23.5746 2.4521 20.3357C1.83948 17.0972 2.22747 14.2566 2.23509 14.2061L2.23518 14.2055C2.24181 14.1593 2.23014 14.1123 2.20259 14.0746C2.17503 14.0368 2.13374 14.0114 2.08754 14.0039L2.08756 14.0037L2.08264 14.0032C2.03851 13.9988 1.99437 14.0111 1.95884 14.0375C1.92331 14.064 1.89896 14.1027 1.89038 14.1461Z" fill="white" stroke="white" stroke-width="0.160837"/>
<path d="M30.8952 1V0.919582H30.8148H30.5818H30.5014V1V43.6667V43.7471H30.5818H30.8148H30.8952V43.6667V1Z" fill="white" stroke="white" stroke-width="0.160837"/>
<path d="M15.2683 9.03973L15.2683 9.03975C15.3364 9.01695 15.4107 9.02173 15.4753 9.05306C15.5399 9.08438 15.5897 9.13971 15.6143 9.20718C15.6252 9.23705 15.6308 9.26862 15.6308 9.30044V9.30073C15.6306 9.35707 15.6133 9.41204 15.5811 9.45827L15.5151 9.41231L15.5811 9.45827C15.5489 9.5045 15.5034 9.53979 15.4505 9.55932L15.4501 9.55947L1.49787 14.6349C1.48607 14.8354 1.46904 15.205 1.46904 15.7085C1.46904 17.2219 1.62459 19.8924 2.53955 22.5126C3.45432 25.1323 5.12502 27.6937 8.15086 29.0061L8.15092 29.0061C15.8597 32.357 29.4212 35.5457 29.6906 35.609L29.6936 35.6097L29.6945 35.61C29.7541 35.6248 29.807 35.6591 29.8449 35.7075C29.8828 35.7559 29.9035 35.8155 29.9038 35.8769L15.2683 9.03973ZM15.2683 9.03973L15.2664 9.04043L1.1407 14.1771L1.11856 14.1851L1.10426 14.2038L0.978436 14.3687L0.964413 14.387L0.962281 14.41C0.956551 14.4719 0.712058 17.3793 1.45977 20.7031C2.20721 24.0258 3.95078 27.7829 7.93565 29.5127C15.7302 32.8967 29.4349 36.1149 29.5714 36.1461L29.5729 36.1464C29.6431 36.161 29.7161 36.1476 29.7766 36.1091C29.837 36.0705 29.88 36.0099 29.8967 35.9402L29.8185 35.9215L15.2683 9.03973Z" fill="white" stroke="white" stroke-width="0.160837"/>
<path d="M30.6969 5.44912L30.6164 5.44897V5.52954V5.92195V6.00237H30.6968H31.6994C31.9984 6.04706 37.6123 6.90334 43.8902 8.38032C47.0529 9.12439 50.3825 10.0256 53.2853 11.0595C56.1724 12.0877 58.6277 13.2439 60.0791 14.5012C60.0623 19.0547 59.1786 22.574 57.2879 25.2807C55.3924 27.994 52.478 29.9006 48.3836 31.2097C39.5522 34.0309 31.7394 35.6705 31.6647 35.6859L31.5863 35.7021L31.6021 35.7806L31.6792 36.1622L31.6951 36.241L31.7739 36.2252C31.8537 36.2091 39.6883 34.5642 48.5476 31.7328L48.5477 31.7328C52.7719 30.3808 55.795 28.4068 57.7605 25.5816C59.7255 22.7571 60.6263 19.092 60.6263 14.3715V14.3543L60.6193 14.3387L60.5539 14.1925L60.547 14.1769L60.5342 14.1654C59.0589 12.8434 56.5774 11.6489 53.6808 10.5982C50.7817 9.54668 47.4572 8.63599 44.2882 7.88533C37.95 6.38396 32.2272 5.52125 31.7591 5.45195L31.7592 5.45108H31.7473H31.72H31.72L30.6969 5.44912Z" fill="white" stroke="white" stroke-width="0.160837"/>
<path d="M15.4961 10.0836L15.5765 10.0837C15.5767 9.86691 15.5912 9.65041 15.6198 9.43558C16.4457 8.65239 17.7751 8.08947 19.3207 7.68867C20.8766 7.28521 22.6407 7.04867 24.3062 6.91312C25.9712 6.7776 27.5355 6.74317 28.691 6.74327C29.2687 6.74331 29.744 6.75198 30.0785 6.76095C30.2457 6.76543 30.3777 6.76998 30.4696 6.77356C30.5156 6.77535 30.5515 6.7769 30.5767 6.77807L30.6064 6.77952L30.6149 6.77999C30.6166 6.78009 30.6175 6.78015 30.6177 6.78017L30.6178 6.78017C30.7009 6.78714 30.7685 6.75801 30.8119 6.69855C30.8507 6.64545 30.863 6.57772 30.8657 6.51829C30.8686 6.45514 30.8586 6.3881 30.8242 6.33279C30.7874 6.27385 30.7275 6.23591 30.6497 6.22945L30.6497 6.2294L30.6469 6.22926C30.4017 6.21743 27.397 6.08014 24.025 6.37147C22.3391 6.51713 20.5589 6.77012 18.9848 7.20047C17.4129 7.63025 16.0363 8.23956 15.1672 9.10442L15.1578 9.11376L15.1519 9.12562L15.0973 9.2355L15.0916 9.24704L15.0897 9.25979C15.0516 9.52354 15.033 9.78978 15.0343 10.0563M15.4961 10.0836H15.5765C15.5765 11.3773 15.9971 12.9901 16.827 14.4586C17.6567 15.9267 18.8918 17.2443 20.5156 17.9562L20.5217 17.9589L20.5216 17.9592L20.5469 17.9729L20.5511 17.9752L20.5511 17.9753L22.2315 19.019L22.2317 19.0191L22.2491 19.0299C25.4072 20.9797 27.344 22.1754 28.4799 24.393C29.6148 26.6085 29.9463 29.8346 29.947 35.8312C30.1206 36.1832 30.2601 36.6825 30.3587 37.2041C30.4556 37.7168 30.5143 38.2569 30.5262 38.7101C30.5865 38.736 30.6517 38.7492 30.7175 38.7486C30.7977 38.7479 30.8764 38.7268 30.9464 38.6873C31.0055 38.649 31.077 38.6349 31.1463 38.6479L31.1315 38.7269L31.1463 38.6479C31.2166 38.6611 31.2789 38.7012 31.3202 38.7595L31.3213 38.761C31.3613 38.8205 31.3768 38.8931 31.3645 38.9637C31.3522 39.0343 31.313 39.0975 31.2552 39.1397L31.2517 39.1423L31.2517 39.1422C31.0798 39.2542 30.8781 39.3111 30.6733 39.3054C30.4685 39.2997 30.2703 39.2316 30.1048 39.1102L30.09 39.0993L30.0813 39.083L29.9955 38.9212L29.9861 38.9035V38.8835C29.9861 38.4436 29.9333 37.8856 29.8373 37.3573C29.7411 36.8273 29.6029 36.3355 29.4358 36.0235L29.4309 36.0143L29.4284 36.0042L29.405 35.9061L29.4028 35.8969V35.8874C29.4028 29.9613 29.1154 26.8444 28.0457 24.7176C26.9783 22.5952 25.1281 21.45 21.948 19.4845L21.9478 19.4844L20.2759 18.4455C18.545 17.6789 17.2353 16.273 16.3587 14.7167C15.4815 13.1593 15.0343 11.4451 15.0343 10.0563M15.4961 10.0836C15.4961 12.7019 17.1962 16.5888 20.4833 18.0299L30.643 6.30959C30.7493 6.31842 30.7903 6.40769 30.7854 6.51462C30.7805 6.62155 30.7415 6.70985 30.6245 6.70004C30.5074 6.69022 18.9021 6.16538 15.5439 9.39687C15.5123 9.6244 15.4963 9.85385 15.4961 10.0836ZM15.0343 10.0563C15.0343 10.0562 15.0343 10.0562 15.0343 10.0561H15.1147L15.0343 10.0565C15.0343 10.0564 15.0343 10.0564 15.0343 10.0563Z" fill="white" stroke="white" stroke-width="0.160837"/>
<path d="M31.4371 35.7708L31.4371 35.7708L31.4364 35.7722C31.2433 36.1335 31.0902 36.6796 30.9852 37.2483C30.8804 37.8157 30.8221 38.4136 30.8216 38.8875C30.8156 38.9249 30.8174 38.9631 30.8268 38.9999C30.8369 39.0392 30.8555 39.0759 30.8813 39.1072C30.9071 39.1386 30.9395 39.1638 30.9762 39.1812C31.0128 39.1986 31.0529 39.2076 31.0935 39.2076C31.1341 39.2076 31.1742 39.1986 31.2109 39.1812C31.2476 39.1638 31.2799 39.1386 31.3057 39.1072C31.3315 39.0759 31.3501 39.0392 31.3602 38.9999C31.3696 38.9632 31.3714 38.9249 31.3655 38.8876C31.366 38.4488 31.4188 37.8938 31.514 37.3682C31.6101 36.8382 31.748 36.3463 31.9145 36.0343C31.9486 35.9706 31.9564 35.8961 31.9364 35.8266C31.9164 35.7572 31.8701 35.6983 31.8072 35.6626L31.8072 35.6626L31.805 35.6614C31.7416 35.628 31.6676 35.6207 31.5989 35.6412C31.5301 35.6617 31.4722 35.7082 31.4371 35.7708Z" fill="white" stroke="white" stroke-width="0.160837"/>
<path d="M31.3524 5.72481V36.0855C31.3524 36.1038 31.3578 36.1279 31.3767 36.1482C31.3947 36.1675 31.4165 36.1741 31.4307 36.1763C31.456 36.1802 31.48 36.1739 31.4929 36.1701C31.5228 36.1614 31.5594 36.1445 31.5913 36.1292C31.6043 36.123 31.6167 36.1169 31.6287 36.1111C31.649 36.1011 31.6681 36.0918 31.6862 36.0835C31.7001 36.0772 31.7111 36.0726 31.7193 36.0697C31.7222 36.0687 31.7242 36.0681 31.7254 36.0678C31.7709 36.0665 31.8142 36.0477 31.8464 36.0154L31.7893 35.9587L31.8464 36.0154C31.8797 35.9819 31.8983 35.9365 31.8983 35.8893V5.72481C31.8983 5.67763 31.8797 5.63228 31.8464 5.59876C31.8131 5.56522 31.7678 5.54629 31.7204 5.54629C31.6832 5.54629 31.6034 5.55938 31.5354 5.57794C31.5007 5.58739 31.4636 5.59971 31.4334 5.61523C31.4186 5.62286 31.4014 5.63334 31.3867 5.64767C31.3726 5.66147 31.3524 5.6875 31.3524 5.72481Z" fill="white" stroke="white" stroke-width="0.160837"/>
<path d="M72.7738 19.7132V11.3445H74.5683V19.7132H72.7738Z" fill="white"/>
<path d="M86.4497 12.7996H80.8177V14.5793H86.1823C87.0311 14.5793 87.5913 14.7232 87.8799 14.9904C88.1685 15.2576 88.3256 15.8125 88.3256 16.5605V17.7279C88.3256 18.4965 88.177 19.0227 87.8799 19.3022C87.5828 19.5817 87.0311 19.7132 86.1823 19.7132H80.8771C80.0283 19.7132 79.4595 19.5734 79.1794 19.3022C78.8993 19.0309 78.755 18.4801 78.755 17.7279V17.4895L80.5291 17.1237V18.143H86.5558V16.2235H81.2039C80.3551 16.2235 79.7892 16.0865 79.5062 15.8125C79.2134 15.5329 79.0818 15.015 79.0818 14.2546V13.3339C79.0818 12.5653 79.2261 12.0391 79.5062 11.7555C79.7863 11.4719 80.3551 11.3445 81.2039 11.3445H86.0847C86.8953 11.3445 87.4555 11.4801 87.7611 11.7555C88.0667 12.0309 88.2237 12.5118 88.2237 13.2065V13.3462L86.4497 13.7573V12.7996Z" fill="white"/>
<path d="M91.915 19.7132V11.3445H93.8818V18.1415H100.289V19.7132H91.915Z" fill="white"/>
<path d="M102.682 19.7132V11.3445H110.968V12.7651H104.582V14.643H108.334V16.0636H104.582V18.1415H111.056V19.7132H102.682Z" fill="white"/>
<path d="M121.881 12.7996H116.608V14.5793H121.63C122.425 14.5793 122.946 14.7232 123.22 14.9904C123.494 15.2576 123.617 15.8125 123.617 16.5605V17.7279C123.617 18.4965 123.478 19.0227 123.22 19.3022C122.961 19.5817 122.425 19.7132 121.63 19.7132H116.655C115.861 19.7132 115.324 19.5734 115.066 19.3022C114.808 19.0309 114.645 18.4801 114.645 17.7279V17.4895L116.306 17.1237V18.143H121.996V16.2235H116.965C116.171 16.2235 115.658 16.0837 115.376 15.8125C115.094 15.5412 114.978 15.015 114.978 14.2546V13.3339C114.978 12.5653 115.118 12.0391 115.376 11.7555C115.634 11.4719 116.171 11.3445 116.965 11.3445H121.539C122.298 11.3445 122.818 11.4801 123.108 11.7555C123.272 11.9542 123.395 12.1853 123.47 12.4348C123.544 12.6843 123.569 12.9469 123.542 13.2065V13.3462L121.881 13.7573V12.7996Z" fill="white"/>
<path d="M127.805 19.7132V11.3445H136.179V12.8182H129.735V15.0226H133.22V16.5453H129.735V19.7132H127.805Z" fill="white"/>
<path d="M138.572 13.316C138.572 12.5552 138.71 12.0357 138.98 11.7535C139.249 11.4713 139.796 11.3445 140.613 11.3445H146.699C147.516 11.3445 148.055 11.4836 148.332 11.7535C148.61 12.0235 148.74 12.5716 148.74 13.316V17.7376C148.74 18.5025 148.597 19.026 148.332 19.3042C148.067 19.5823 147.516 19.7132 146.699 19.7132H140.625C139.809 19.7132 139.278 19.5782 138.992 19.3042C138.706 19.0301 138.584 18.4861 138.584 17.7376L138.572 13.316ZM140.503 18.1425H146.846V12.8252H140.503V18.1425Z" fill="white"/>
<path d="M152.927 19.7132V11.3522H159.826C160.319 11.3094 160.811 11.445 161.217 11.7356C161.37 11.896 161.488 12.0882 161.562 12.2994C161.636 12.5105 161.665 12.7356 161.647 12.9592V14.925C161.664 15.1486 161.635 15.3734 161.561 15.5844C161.487 15.7954 161.37 15.9878 161.217 16.1486C160.816 16.4517 160.322 16.5965 159.826 16.5564H158.776L162.498 19.6969H159.806L156.561 16.5564H154.784V19.6969L152.927 19.7132ZM158.995 12.7797H154.784V15.1126H158.995C159.227 15.1362 159.46 15.0848 159.663 14.9658C159.729 14.899 159.779 14.8177 159.81 14.728C159.841 14.6382 159.852 14.5424 159.842 14.4478V13.4404C159.852 13.3465 159.841 13.2514 159.81 13.1624C159.779 13.0733 159.728 12.9927 159.663 12.9266C159.458 12.8132 159.225 12.7676 158.995 12.796V12.7797Z" fill="white"/>
<path d="M165.488 19.7116V11.3445H170.878C172.41 11.3445 173.588 11.7037 174.413 12.422C174.834 12.8096 175.164 13.2847 175.378 13.8133C175.592 14.3419 175.685 14.9107 175.65 15.4791C175.661 16.2104 175.496 16.9338 175.167 17.5892C174.861 18.1963 174.39 18.7066 173.807 19.0627C173.391 19.3118 172.932 19.4807 172.454 19.5606C171.772 19.6724 171.082 19.723 170.392 19.7116H165.488ZM167.443 18.1402H169.959C171.3 18.1402 172.25 17.9321 172.809 17.5158C173.367 17.0994 173.642 16.4097 173.633 15.4464C173.658 15.0926 173.609 14.7374 173.489 14.4031C173.37 14.0688 173.181 13.7626 172.936 13.5036C172.362 13.0265 171.622 12.7894 170.874 12.8424H167.427L167.443 18.1402Z" fill="white"/>
<path d="M72.1348 33.1336V25.3792H79.1688C79.672 25.3425 80.1725 25.4769 80.5781 25.7575C80.7335 25.9065 80.853 26.0849 80.9284 26.2806C81.0039 26.4764 81.0335 26.6849 81.0154 26.8923V27.8417C81.0239 28.0063 80.9955 28.1707 80.932 28.3244C80.8685 28.4781 80.7714 28.6178 80.6469 28.7344C80.3572 28.9762 79.9897 29.1212 79.6021 29.1467C80.0163 29.1811 80.4045 29.3497 80.6996 29.6233C80.972 29.8968 81.1176 30.2599 81.1045 30.6333V31.6244C81.1194 31.8463 81.0715 32.068 80.9656 32.2672C80.8596 32.4664 80.6995 32.6361 80.5011 32.7591C79.9435 33.0455 79.3097 33.1768 78.6748 33.1374L72.1348 33.1336ZM78.3711 26.6502H74.0219V28.5075H78.3711C78.6085 28.5267 78.847 28.4835 79.0595 28.3826C79.126 28.3297 79.1777 28.2624 79.2101 28.1866C79.2426 28.1108 79.2548 28.0288 79.2458 27.9476V27.1911C79.2549 27.1105 79.2426 27.029 79.2101 26.9538C79.1777 26.8786 79.1259 26.812 79.0595 26.7599C78.8465 26.6612 78.6071 26.623 78.3711 26.6502V26.6502ZM78.3711 29.7746H74.0219V31.7492H78.3711C78.6283 31.7747 78.8874 31.7202 79.1081 31.5941C79.1794 31.5211 79.2332 31.4348 79.266 31.3409C79.2988 31.247 79.3099 31.1476 79.2984 31.0494V30.4631C79.31 30.366 79.299 30.2678 79.2662 30.1751C79.2333 30.0823 79.1794 29.9974 79.1081 29.9259C78.8867 29.8017 78.6278 29.7485 78.3711 29.7746V29.7746Z" fill="white"/>
<path d="M84.6959 27.204C84.6959 26.4975 84.8385 26.0152 85.1033 25.7531C85.3681 25.491 85.9181 25.3733 86.7329 25.3733H92.8073C93.6221 25.3733 94.1598 25.5024 94.4369 25.7531C94.7139 26.0038 94.8646 26.5127 94.8646 27.204V31.3098C94.8646 32.02 94.722 32.5062 94.4369 32.7644C94.1517 33.0227 93.6221 33.1442 92.8073 33.1442H86.7492C85.9344 33.1442 85.4007 33.0189 85.1196 32.7644C84.8385 32.51 84.7122 32.0048 84.7122 31.3098L84.6959 27.204ZM86.6229 31.6858H92.958V26.7482H86.6352L86.6229 31.6858Z" fill="white"/>
<path d="M96.6602 33.1442L101.379 25.3733H103.245L108.025 33.1442H105.847L104.848 31.4498H99.562L98.592 33.1442H96.6602ZM100.392 30.0359H104.042L102.242 26.8668L100.392 30.0359Z" fill="white"/>
<path d="M112.954 26.7645V33.1442H110.899V26.7645H106.829V25.3733H116.998V26.7645H112.954Z" fill="white"/>
<path d="M120.682 33.1442L117.594 25.3733H119.521L121.554 30.5893L123.686 25.3733H124.989L127.157 30.5893L129.099 25.3733H130.754L127.658 33.1442H126.411L124.204 27.7728L121.969 33.1442H120.682Z" fill="white"/>
<path d="M133.147 27.204C133.147 26.4975 133.29 26.0152 133.555 25.7531C133.82 25.491 134.372 25.3733 135.188 25.3733H141.274C142.091 25.3733 142.63 25.5024 142.907 25.7531C143.185 26.0038 143.316 26.5127 143.316 27.204V31.3098C143.316 32.02 143.177 32.5062 142.907 32.7644C142.638 33.0227 142.091 33.1442 141.274 33.1442H135.204C134.388 33.1442 133.853 33.0189 133.571 32.7644C133.29 32.51 133.163 32.0048 133.163 31.3098L133.147 27.204ZM135.078 31.6858H141.421V26.7482H135.078V31.6858Z" fill="white"/>
<path d="M147.504 33.1442V25.3803H154.406C154.899 25.3411 155.391 25.467 155.798 25.7363C155.951 25.8852 156.068 26.0637 156.142 26.2598C156.217 26.4559 156.245 26.6648 156.227 26.8725V28.698C156.245 28.9056 156.215 29.1143 156.141 29.3103C156.067 29.5062 155.95 29.6848 155.798 29.8341C155.396 30.115 154.903 30.2494 154.406 30.2129H153.352L157.074 33.1291H154.386L151.138 30.2129H149.364V33.1291L147.504 33.1442ZM153.571 26.7058H149.36V28.8722H153.571C153.803 28.8935 154.037 28.8459 154.239 28.7358C154.304 28.673 154.353 28.5973 154.383 28.5141C154.414 28.4309 154.424 28.3424 154.414 28.2548V27.3194C154.424 27.2325 154.413 27.1446 154.383 27.0621C154.353 26.9796 154.304 26.9045 154.239 26.8422C154.035 26.7374 153.802 26.6951 153.571 26.721V26.7058Z" fill="white"/>
<path d="M159.466 33.1442V25.3733H161.454V28.6181L166.113 25.3733H168.946L163.379 29.0351L169.635 33.1442H166.49L161.454 29.7326V33.1442H159.466Z" fill="white"/>
<path d="M179.243 26.7244H173.972V28.3771H178.992C179.788 28.3771 180.312 28.5107 180.583 28.7588C180.853 29.0069 181 29.5221 181 30.2168V31.3007C181 32.0145 180.861 32.503 180.583 32.7626C180.304 33.0221 179.788 33.1442 178.992 33.1442H174.015C173.22 33.1442 172.688 33.0145 172.425 32.7626C172.163 32.5107 172.028 31.9992 172.028 31.3007V31.0794L173.689 30.7397V31.6862H179.378V29.9038H174.325C173.53 29.9038 173.017 29.774 172.735 29.5221C172.453 29.2702 172.338 28.7817 172.338 28.0756V27.2206C172.338 26.5069 172.473 26.0183 172.735 25.755C172.998 25.4916 173.53 25.3733 174.325 25.3733H178.901C179.66 25.3733 180.185 25.4992 180.471 25.755C180.758 26.0107 180.905 26.4573 180.905 27.1023V27.2321L179.243 27.6137V26.7244Z" fill="white"/>
</svg>
